<svg width="360" height="114" viewBox="0 0 360 114" fill="none" xmlns="http://www.w3.org/2000/svg">
<path d="M28.5837 48.6696V82.146L67.2103 43.7769H33.7339C30.9013 43.7769 28.5837 45.8369 28.5837 48.6696Z" fill="#5BA4FF"/>
<path d="M115.88 59.7425H99.3991V43.7769H92.7039V82.146H99.3991V66.1803H115.88V82.146H122.575V43.7769H115.88V59.7425Z" fill="#1D3553"/>
<path d="M161.974 49.4421C160.687 48.1545 159.399 46.867 157.854 46.0945C156.309 45.3219 154.764 44.5494 152.961 44.2919C151.416 43.7769 149.871 43.7769 148.069 43.7769C146.266 43.7769 144.721 44.0344 143.176 44.2919C141.631 44.5494 140.086 45.0644 138.541 46.0945C136.996 46.867 135.451 48.1545 134.421 49.4421C133.391 50.7296 132.361 52.7897 131.588 55.1073C130.815 57.4249 130.558 59.7425 130.558 62.8327C130.558 65.9228 130.815 68.2404 131.588 70.558C132.361 72.8756 133.133 74.9356 134.421 76.2232C135.451 77.5108 136.996 78.7983 138.541 79.5709C140.086 80.3434 141.631 81.1159 143.176 81.3734C144.721 81.6309 146.524 81.8884 148.069 81.8884C149.871 81.8884 151.416 81.6309 152.961 81.3734C154.506 81.1159 156.052 80.6009 157.854 79.5709C159.399 78.7983 160.944 77.5108 161.974 76.2232C163.262 74.9356 164.034 72.8756 164.807 70.558C165.579 68.2404 165.837 65.9228 165.837 62.8327C165.837 59.7425 165.579 57.4249 164.807 55.1073C164.034 52.7897 163.262 50.7296 161.974 49.4421ZM158.369 68.2404C157.854 70.0429 157.339 71.3305 156.824 72.3605C156.309 73.3906 155.279 74.1631 154.249 74.6781C153.219 75.1932 152.446 75.4507 151.416 75.7082C150.386 75.9657 149.356 75.9657 148.069 75.9657C146.524 75.9657 144.979 75.7082 143.949 75.4507C142.661 75.1932 141.631 74.4206 140.601 73.6481C139.571 72.8756 138.541 71.3305 138.026 69.5279C137.511 67.7254 137.253 65.6653 137.253 62.8327C137.253 60.5151 137.511 58.97 137.768 57.4249C138.283 55.8799 138.798 54.3348 139.313 53.5623C139.828 52.5322 140.858 51.7597 141.888 51.2447C142.918 50.7296 143.691 50.4721 144.721 50.2146C145.751 49.9571 146.781 49.9571 148.069 49.9571C149.614 49.9571 151.159 50.2146 152.189 50.4721C153.219 50.7296 154.506 51.2447 155.537 52.2747C156.567 53.0472 157.597 54.5923 158.112 56.3949C158.627 58.1975 158.884 60.2575 158.884 63.0902C159.142 65.1502 158.884 66.6953 158.369 68.2404Z" fill="#1D3553"/>
<path d="M192.103 59.7425L181.03 43.7769H173.562V82.146H180.515V53.5623L192.103 70.558L203.948 53.5623V82.146H210.901V43.7769H203.176L192.103 59.7425Z" fill="#1D3553"/>
<path d="M304.893 43.7769L289.7 82.146H297.167L300.773 72.8756H316.996L320.601 82.146H328.069L312.361 43.7769H304.893ZM302.833 66.6953L308.498 51.7597L314.163 66.6953H302.833Z" fill="#1D3553"/>
<path d="M221.202 82.146H246.695V75.9657H228.155V66.1803H244.12V59.7425H228.155V49.9571H246.695V43.7769H221.202V82.146Z" fill="#1D3553"/>
<path d="M351.76 43.7769L341.717 59.2275L331.416 43.7769H323.176L338.112 65.6653V82.146H345.064V65.6653L360 43.7769H351.76Z" fill="#1D3553"/>
<path d="M269.614 43.7769H256.481V82.146H269.614C275.537 82.146 280.172 80.6009 283.004 77.2533C286.094 73.9056 287.64 69.2704 287.64 63.0902C287.64 56.9099 286.094 52.0172 283.004 48.6696C279.914 45.3219 275.537 43.7769 269.614 43.7769ZM278.112 72.8756C276.309 74.9357 273.476 75.9657 269.614 75.9657H263.434V49.9571H269.614C273.476 49.9571 276.567 50.9872 278.112 53.0472C279.914 55.1073 280.687 58.455 280.687 63.0902C280.687 67.4678 279.914 70.8155 278.112 72.8756Z" fill="#1D3553"/>
<path d="M65.6652 28.0687L36.824 1.28755C36.0515 0.515022 34.764 0 33.4764 0C32.1888 0 30.9013 0.515022 30.1288 1.28755L1.54507 28.0687C0.515022 29.0987 0 30.3863 0 31.6738V77.2532C0 80.0858 2.3176 82.1459 4.8927 82.1459H28.5837V48.6695C28.5837 45.8369 30.9013 43.7768 33.4764 43.7768H66.9528V31.6738C67.2103 30.1288 66.4378 28.8412 65.6652 28.0687Z" fill="#1D3553"/>
<path d="M92.0577 113H94.1444V103.217C94.1444 101.645 93.9818 99.5313 93.8734 97.9595H93.9818L95.391 101.916L98.8056 111.211H100.106L103.521 101.916L104.93 97.9595H105.039C104.93 99.5313 104.74 101.645 104.74 103.217V113H106.881V95.2224H104.226L100.811 104.762L99.5644 108.393H99.456L98.1823 104.762L94.7406 95.2224H92.0577V113Z" fill="#1C3553"/>
<path d="M110.504 106.442C110.504 110.751 113.295 113.325 116.818 113.325C118.607 113.325 120.016 112.702 121.154 111.97L120.369 110.507C119.393 111.13 118.336 111.537 117.089 111.537C114.569 111.537 112.862 109.748 112.699 106.903H121.588C121.642 106.577 121.669 106.144 121.669 105.683C121.669 101.916 119.772 99.5042 116.412 99.5042C113.404 99.5042 110.504 102.133 110.504 106.442ZM112.672 105.439C112.943 102.783 114.623 101.266 116.466 101.266C118.526 101.266 119.718 102.756 119.718 105.439H112.672Z" fill="#1C3553"/>
<path d="M126.062 97.1194C126.929 97.1194 127.607 96.5232 127.607 95.6831C127.607 94.8159 126.929 94.2468 126.062 94.2468C125.195 94.2468 124.517 94.8159 124.517 95.6831C124.517 96.5232 125.195 97.1194 126.062 97.1194ZM124.924 113H127.146V99.8294H124.924V113Z" fill="#1C3553"/>
<path d="M131.593 113H133.815V103.461C135.143 102.133 136.064 101.428 137.419 101.428C139.154 101.428 139.913 102.485 139.913 104.951V113H142.135V104.653C142.135 101.293 140.888 99.5042 138.124 99.5042C136.308 99.5042 134.953 100.48 133.707 101.726H133.625L133.436 99.8294H131.593V113Z" fill="#1C3553"/>
<path d="M152.027 113H154.303V95.2224H152.027V113Z" fill="#1C3553"/>
<path d="M158.878 113H161.1V103.461C162.32 102.106 163.431 101.428 164.407 101.428C166.087 101.428 166.873 102.485 166.873 104.951V113H169.095V103.461C170.314 102.106 171.371 101.428 172.401 101.428C174.054 101.428 174.84 102.485 174.84 104.951V113H177.062V104.653C177.062 101.293 175.762 99.5042 173.052 99.5042C171.453 99.5042 170.098 100.534 168.716 102.025C168.174 100.453 167.09 99.5042 165.084 99.5042C163.512 99.5042 162.13 100.48 160.992 101.726H160.911L160.721 99.8294H158.878V113Z" fill="#1C3553"/>
<path d="M181.347 113H183.569V103.461C184.789 102.106 185.9 101.428 186.875 101.428C188.556 101.428 189.341 102.485 189.341 104.951V113H191.564V103.461C192.783 102.106 193.84 101.428 194.87 101.428C196.523 101.428 197.309 102.485 197.309 104.951V113H199.531V104.653C199.531 101.293 198.23 99.5042 195.52 99.5042C193.921 99.5042 192.566 100.534 191.184 102.025C190.642 100.453 189.558 99.5042 187.553 99.5042C185.981 99.5042 184.599 100.48 183.461 101.726H183.379L183.19 99.8294H181.347V113Z" fill="#1C3553"/>
<path d="M202.84 106.442C202.84 110.805 205.713 113.325 208.937 113.325C212.162 113.325 215.035 110.805 215.035 106.442C215.035 102.025 212.162 99.5042 208.937 99.5042C205.713 99.5042 202.84 102.025 202.84 106.442ZM205.143 106.442C205.143 103.407 206.688 101.347 208.937 101.347C211.214 101.347 212.731 103.407 212.731 106.442C212.731 109.45 211.214 111.482 208.937 111.482C206.688 111.482 205.143 109.45 205.143 106.442Z" fill="#1C3553"/>
<path d="M218.504 113H220.292L220.482 111.699H220.563C221.728 112.729 223.111 113.325 224.33 113.325C227.338 113.325 230.021 110.697 230.021 106.198C230.021 102.133 228.205 99.5042 224.791 99.5042C223.327 99.5042 221.864 100.29 220.672 101.347L220.726 98.9622V93.7048H218.504V113ZM220.726 110.073V103.163C221.972 101.997 223.138 101.374 224.249 101.374C226.742 101.374 227.718 103.325 227.718 106.225C227.718 109.477 226.119 111.455 223.951 111.455C223.083 111.455 221.891 111.076 220.726 110.073Z" fill="#1C3553"/>
<path d="M234.674 97.1194C235.541 97.1194 236.218 96.5232 236.218 95.6831C236.218 94.8159 235.541 94.2468 234.674 94.2468C233.807 94.2468 233.129 94.8159 233.129 95.6831C233.129 96.5232 233.807 97.1194 234.674 97.1194ZM233.536 113H235.758V99.8294H233.536V113Z" fill="#1C3553"/>
<path d="M240.205 110.344C240.205 112.268 240.882 113.325 242.562 113.325C243.159 113.325 243.538 113.244 243.836 113.108L243.538 111.428C243.294 111.482 243.186 111.482 243.05 111.482C242.725 111.482 242.427 111.211 242.427 110.507V93.7048H240.205V110.344Z" fill="#1C3553"/>
<path d="M248.25 97.1194C249.117 97.1194 249.795 96.5232 249.795 95.6831C249.795 94.8159 249.117 94.2468 248.25 94.2468C247.383 94.2468 246.706 94.8159 246.706 95.6831C246.706 96.5232 247.383 97.1194 248.25 97.1194ZM247.112 113H249.334V99.8294H247.112V113Z" fill="#1C3553"/>
<path d="M252.806 106.442C252.806 110.751 255.597 113.325 259.12 113.325C260.908 113.325 262.318 112.702 263.456 111.97L262.67 110.507C261.694 111.13 260.637 111.537 259.391 111.537C256.871 111.537 255.163 109.748 255.001 106.903H263.889C263.944 106.577 263.971 106.144 263.971 105.683C263.971 101.916 262.074 99.5042 258.713 99.5042C255.705 99.5042 252.806 102.133 252.806 106.442ZM254.974 105.439C255.245 102.783 256.925 101.266 258.768 101.266C260.827 101.266 262.02 102.756 262.02 105.439H254.974Z" fill="#1C3553"/>
<path d="M267.225 113H269.448V103.461C270.775 102.133 271.697 101.428 273.052 101.428C274.786 101.428 275.545 102.485 275.545 104.951V113H277.767V104.653C277.767 101.293 276.521 99.5042 273.756 99.5042C271.941 99.5042 270.586 100.48 269.339 101.726H269.258L269.068 99.8294H267.225V113Z" fill="#1C3553"/>
<path d="M282.046 113H284.268V103.461C285.487 102.106 286.598 101.428 287.574 101.428C289.254 101.428 290.04 102.485 290.04 104.951V113H292.262V103.461C293.482 102.106 294.539 101.428 295.569 101.428C297.222 101.428 298.008 102.485 298.008 104.951V113H300.23V104.653C300.23 101.293 298.929 99.5042 296.219 99.5042C294.62 99.5042 293.265 100.534 291.883 102.025C291.341 100.453 290.257 99.5042 288.252 99.5042C286.68 99.5042 285.298 100.48 284.159 101.726H284.078L283.888 99.8294H282.046V113Z" fill="#1C3553"/>
<path d="M303.864 109.585C303.864 111.943 305.517 113.325 307.739 113.325C309.365 113.325 310.829 112.458 312.102 111.428H312.156L312.346 113H314.189V104.924C314.189 101.645 312.834 99.5042 309.609 99.5042C307.495 99.5042 305.652 100.426 304.433 101.212L305.327 102.756C306.357 102.052 307.712 101.347 309.257 101.347C311.398 101.347 311.967 102.973 311.967 104.653C306.357 105.277 303.864 106.713 303.864 109.585ZM306.059 109.423C306.059 107.743 307.549 106.659 311.967 106.117V109.775C310.693 110.913 309.636 111.537 308.362 111.537C307.062 111.537 306.059 110.913 306.059 109.423Z" fill="#1C3553"/>
<path d="M318.382 113H320.577V109.531L323.043 106.659L326.891 113H329.33L324.317 105.114L328.734 99.8294H326.268L320.658 106.767H320.577V93.7048H318.382V113Z" fill="#1C3553"/>
<path d="M331.8 110.344C331.8 112.268 332.477 113.325 334.157 113.325C334.753 113.325 335.133 113.244 335.431 113.108L335.133 111.428C334.889 111.482 334.781 111.482 334.645 111.482C334.32 111.482 334.022 111.211 334.022 110.507V93.7048H331.8V110.344Z" fill="#1C3553"/>
<path d="M337.731 106.442C337.731 110.751 340.523 113.325 344.046 113.325C345.834 113.325 347.243 112.702 348.382 111.97L347.596 110.507C346.62 111.13 345.563 111.537 344.317 111.537C341.796 111.537 340.089 109.748 339.926 106.903H348.815C348.869 106.577 348.896 106.144 348.896 105.683C348.896 101.916 346.999 99.5042 343.639 99.5042C340.631 99.5042 337.731 102.133 337.731 106.442ZM339.899 105.439C340.17 102.783 341.85 101.266 343.693 101.266C345.753 101.266 346.945 102.756 346.945 105.439H339.899Z" fill="#1C3553"/>
<path d="M352.151 113H354.373V104.545C355.268 102.323 356.595 101.51 357.707 101.51C358.249 101.51 358.547 101.591 358.98 101.726L359.414 99.7752C358.98 99.5855 358.574 99.5042 358.005 99.5042C356.514 99.5042 355.159 100.561 354.265 102.214H354.184L353.994 99.8294H352.151V113Z" fill="#1C3553"/>
</svg>
